#!OML:ASF H:\Punching\Project 1\Capture day 1\Session 1\female.ASF
:FULLY-SPECIFIED
:DEGREES
2612
root -0.891175 14.6403 -1.53598 19.7105 -27.1392 -8.64972
lowerback -1.82901 -1.41445 3.10518
upperback -5.67998 -1.93412 -0.747639
thorax -4.98002 -1.14553 -2.45942
lowerneck -15.0176 -1.94111 1.75839
upperneck 27.7746 -1.71785 -5.9
head 11.4399 -1.41711 -2.7371
rclavicle 5.76972e-014 -1.27222e-014
rhumerus -1.8382 19.6737 -63.5428
rradius 128.707
rwrist -11.7856
rhand -28.3198 9.4008
rfingers 7.12502
rthumb -1.69481 -20.5722
lclavicle 5.76972e-014 -1.27222e-014
lhumerus -4.2057 -14.1965 64.7028
lradius 135.748
lwrist -3.5747
lhand -26.6432 3.39112
lfingers 7.12502
lthumb -0.0754946 33.3709
rfemur -6.46455 5.26743 23.5157
rtibia 27.3772
rfoot -31.4288 -24.5531
rtoes -12.2724
lfemur -51.1626 2.94135 6.35011
ltibia 40.6534
lfoot -6.75458 14.2354
ltoes 13.8773
2613
root -0.913527 14.6459 -1.61395 19.468 -27.0937 -8.37739
lowerback -1.84547 -1.58151 2.92682
upperback -5.70512 -2.16185 -0.765218
thorax -5.00563 -1.25261 -2.37098
lowerneck -14.9671 -1.82065 1.84852
upperneck 27.8287 -1.56612 -5.9207
head 11.4564 -1.34301 -2.74077
rclavicle 2.94201e-014 -1.43125e-014
rhumerus -1.82959 19.7248 -63.5527
rradius 128.738
rwrist -12.1465
rhand -27.8308 9.18618
rfingers 7.12502
rthumb -1.22253 -20.7901
lclavicle 2.94201e-014 -1.43125e-014
lhumerus -4.09413 -14.4845 64.9075
lradius 135.652
lwrist -3.94045
lhand -26.7075 3.36679
lfingers 7.12502
lthumb -0.137564 33.3465
rfemur -6.7344 5.35266 23.5415
rtibia 27.7601
rfoot -31.5775 -24.8593
rtoes -11.9987
lfemur -50.8801 3.66388 5.67098
ltibia 41.0223
lfoot -6.07996 13.8462
ltoes 12.2979
2614
root -0.933554 14.6516 -1.68731 19.2012 -27.0048 -8.12608
lowerback -1.84756 -1.75313 2.7981
upperback -5.72287 -2.39421 -0.773019
thorax -5.0327 -1.36376 -2.29967
lowerneck -14.8902 -1.70434 1.95173
upperneck 27.8578 -1.41705 -5.96604
head 11.4577 -1.27144 -2.75476
rclavicle -7.13637e-014 -3.18055e-015
rhumerus -1.81968 19.7774 -63.5588
rradius 128.773
rwrist -12.3552
rhand -27.4204 9.00886
rfingers 7.12502
rthumb -0.826136 -20.9693
lclavicle -7.13637e-014 -3.18055e-015
lhumerus -3.96246 -14.7665 65.0889
lradius 135.571
lwrist -4.27996
lhand -26.785 3.4027
lfingers 7.12502
lthumb -0.212468 33.3823
rfemur -6.96064 5.39182 23.5661
rtibia 28.165
rfoot -31.6991 -25.0608
rtoes -11.8421
lfemur -50.6299 4.65089 4.75281
ltibia 41.5572
lfoot -5.43696 13.323
ltoes 10.6957
2615
root -0.951212 14.6562 -1.75642 18.9213 -26.8632 -7.91788
lowerback -1.82793 -1.93053 2.72752
upperback -5.73842 -2.63205 -0.758067
thorax -5.07114 -1.47967 -2.23622
lowerneck -14.7814 -1.58919 2.05151
upperneck 27.8678 -1.26425 -6.02696
head 11.4455 -1.20011 -2.7722
rclavicle -1.39149e-015 -7.95139e-015
rhumerus -1.82877 19.8478 -63.5498
rradius 128.825
rwrist -12.4042
rhand -27.2068 8.90986
rfingers 7.12502
rthumb -0.619793 -21.069
lclavicle -1.39149e-015 -7.95139e-015
lhumerus -3.85408 -15.0344 65.2928
lradius 135.504
lwrist -4.57921
lhand -26.8664 3.43318
lfingers 7.12502
lthumb -0.291061 33.4127
rfemur -7.13932 5.36361 23.6142
rtibia 28.5772
rfoot -31.8105 -25.1529
rtoes -11.7552
lfemur -50.4095 5.75665 3.72999
ltibia 42.2418
lfoot -5.01661 12.7058
ltoes 9.34094
2616
root -0.966545 14.6587 -1.82128 18.652 -26.6783 -7.79405
lowerback -1.78598 -2.0989 2.73806
upperback -5.74881 -2.85479 -0.711757
thorax -5.11807 -1.59079 -2.18496
lowerneck -14.6618 -1.48678 2.14497
upperneck 27.8703 -1.12347 -6.10262
head 11.4278 -1.13645 -2.79527
rclavicle 3.42904e-014 1.74931e-014
rhumerus -1.86715 19.9143 -63.5175
rradius 128.897
rwrist -12.3384
rhand -27.2077 8.92705
rfingers 7.12502
rthumb -0.620694 -21.0518
lclavicle 3.42904e-014 1.74931e-014
lhumerus -3.75461 -15.2954 65.5349
lradius 135.446
lwrist -4.80697
lhand -26.9493 3.43274
lfingers 7.12502
lthumb -0.371108 33.4122
rfemur -7.27037 5.3011 23.7293
rtibia 28.9776
rfoot -31.9282 -25.1654
rtoes -11.6503
lfemur -50.2115 6.88392 2.72829
ltibia 43.0613
lfoot -4.87517 12.1082
ltoes 8.36158
2617
root -0.979488 14.6593 -1.88118 18.3996 -26.4424 -7.73737
lowerback -1.74687 -2.26336 2.81997
upperback -5.75396 -3.07003 -0.635313
thorax -5.15964 -1.70042 -2.14235
lowerneck -14.5556 -1.39472 2.22809
upperneck 27.8833 -0.989671 -6.19362
head 11.4167 -1.07901 -2.82397
rclavicle -9.54166e-015 -2.70347e-014
rhumerus -1.92351 19.967 -63.4584
rradius 129.006
rwrist -12.2234
rhand -27.3266 8.95932
rfingers 7.12502
rthumb -0.735501 -21.0192
lclavicle -9.54166e-015 -2.70347e-014
lhumerus -3.6585 -15.5557 65.8196
lradius 135.404
lwrist -4.96887
lhand -27.0223 3.47062
lfingers 7.12502
lthumb -0.441619 33.4499
rfemur -7.35416 5.19478 23.9016
rtibia 29.3431
rfoot -32.0609 -25.1354
rtoes -11.4914
lfemur -50.0391 7.94394 1.78646
ltibia 43.9945
lfoot -4.98831 11.6223
ltoes 7.68385
2618
root -0.990117 14.6581 -1.93613 18.1716 -26.1617 -7.73511
lowerback -1.72192 -2.42428 2.9551
upperback -5.75979 -3.27881 -0.527844
thorax -5.19496 -1.80837 -2.09766
lowerneck -14.4782 -1.31175 2.30034
upperneck 27.9256 -0.859727 -6.30319
head 11.4229 -1.0272 -2.85992
rclavicle -4.24902e-014 -2.22639e-014
rhumerus -1.98666 19.9918 -63.3704
rradius 129.171
rwrist -12.1821
rhand -27.4439 8.9416
rfingers 7.12502
rthumb -0.848833 -21.0365
lclavicle -4.24902e-014 -2.22639e-014
lhumerus -3.56005 -15.8066 66.1503
lradius 135.374
lwrist -5.05752
lhand -27.0844 3.49357
lfingers 7.12502
lthumb -0.501563 33.4727
rfemur -7.39673 5.07568 24.1254
rtibia 29.6576
rfoot -32.1929 -25.1218
rtoes -11.2957
lfemur -49.8855 8.88351 0.929593
ltibia 45.0075
lfoot -5.33406 11.3088
ltoes 7.13399
2619
root -0.998704 14.6562 -1.98519 17.9683 -25.8513 -7.76313
lowerback -1.73029 -2.58024 3.12329
upperback -5.77085 -3.48048 -0.396794
thorax -5.21732 -1.91366 -2.04831
lowerneck -14.4277 -1.23909 2.35113
upperneck 28.0031 -0.735139 -6.42185
head 11.4482 -0.98176 -2.89817
rclavicle 3.58309e-014 1.59028e-015
rhumerus -2.05733 20.0069 -63.2613
rradius 129.372
rwrist -12.2191
rhand -27.6047 8.91571
rfingers 7.12502
rthumb -1.00415 -21.0617
lclavicle 3.58309e-014 1.59028e-015
lhumerus -3.4502 -16.0563 66.509
lradius 135.362
lwrist -5.08135
lhand -27.1412 3.57364
lfingers 7.12502
lthumb -0.556471 33.5527
rfemur -7.40181 4.96254 24.3776
rtibia 29.9117
rfoot -32.3287 -25.1514
rtoes -11.045
lfemur -49.7331 9.67059 0.16031
ltibia 46.0491
lfoot -5.88284 11.1615
ltoes 6.65711
2620
root -1.00573 14.6547 -2.0289 17.7863 -25.529 -7.79577
lowerback -1.77807 -2.72802 3.29448
upperback -5.79027 -3.67192 -0.24962
thorax -5.2248 -2.01361 -1.98591
lowerneck -14.397 -1.17713 2.37698
upperneck 28.1084 -0.617949 -6.54152
head 11.4884 -0.942923 -2.93499
rclavicle -1.07592e-014 -1.59028e-015
rhumerus -2.12934 20.0201 -63.1372
rradius 129.601
rwrist -12.3362
rhand -27.8043 8.84812
rfingers 7.12502
rthumb -1.1969 -21.1283
lclavicle -1.07592e-014 -1.59028e-015
lhumerus -3.32383 -16.3058 66.8922
lradius 135.362
lwrist -5.05107
lhand -27.1947 3.66046
lfingers 7.12502
lthumb -0.60817 33.6393
rfemur -7.38093 4.88576 24.6342
rtibia 30.1045
rfoot -32.4598 -25.2446
rtoes -10.7345
lfemur -49.5674 10.2753 -0.517334
ltibia 47.0517
lfoot -6.59049 11.1293
ltoes 6.15627
2621
root -1.01161 14.655 -2.06711 17.6156 -25.2089 -7.79887
lowerback -1.86804 -2.87044 3.4334
upperback -5.82485 -3.85805 -0.0937235
thorax -5.2211 -2.10941 -1.89864
lowerneck -14.372 -1.12113 2.37671
upperneck 28.2378 -0.501845 -6.65968
head 11.5395 -0.907617 -2.96802
rclavicle -3.01283e-014 1.59028e-014
rhumerus -2.19949 20.045 -63.0108
rradius 129.855
rwrist -12.5606
rhand -28.0122 8.72531
rfingers 7.12502
rthumb -1.39772 -21.2499
lclavicle -3.01283e-014 1.59028e-014
lhumerus -3.1819 -16.5498 67.29
lradius 135.365
lwrist -4.98014
lhand -27.2542 3.73707
lfingers 7.12502
lthumb -0.665602 33.7158
rfemur -7.33883 4.84516 24.8589
rtibia 30.2349
rfoot -32.586 -25.3945
rtoes -10.3669
lfemur -49.3745 10.6692 -1.11237
ltibia 47.9377
lfoot -7.40428 11.1433
ltoes 5.61498
2622
root -1.01691 14.6581 -2.09991 17.456 -24.9184 -7.76938
lowerback -1.99688 -2.99683 3.52981
upperback -5.87454 -4.02496 0.0629098
thorax -5.20662 -2.19388 -1.78976
lowerneck -14.3489 -1.07342 2.35755
upperneck 28.3833 -0.393403 -6.77223
head 11.5974 -0.877429 -2.99749
rclavicle -3.07309e-014 1.51076e-014
rhumerus -2.27443 20.0736 -62.8907
rradius 130.134
rwrist -12.9195
rhand -28.2143 8.5502
rfingers 7.12502
rthumb -1.59284 -21.4236
lclavicle -3.07309e-014 1.51076e-014
lhumerus -3.02258 -16.8086 67.6931
lradius 135.37
lwrist -4.8981
lhand -27.3288 3.82539
lfingers 7.12502
lthumb -0.737675 33.8039
rfemur -7.28119 4.8581 25.0419
rtibia 30.3024
rfoot -32.6774 -25.6017
rtoes -10.0074
lfemur -49.1395 10.8406 -1.60158
ltibia 48.6263
lfoot -8.25139 11.1653
ltoes 5.19767
2623
root -1.02186 14.6647 -2.12718 17.3018 -24.6712 -7.69583
lowerback -2.159 -3.10773 3.57079
upperback -5.94237 -4.1734 0.217428
thorax -5.18665 -2.26699 -1.65486
lowerneck -14.3158 -1.02849 2.31602
upperneck 28.5365 -0.285108 -6.87532
head 11.6568 -0.848723 -3.01982
rclavicle -6.72731e-014 -2.54444e-014
rhumerus -2.34693 20.1234 -62.7903
rradius 130.426
rwrist -13.3982
rhand -28.4087 8.30636
rfingers 7.12502
rthumb -1.78061 -21.666
lclavicle -6.72731e-014 -2.54444e-014
lhumerus -2.87347 -17.0731 68.1128
lradius 135.369
lwrist -4.81528
lhand -27.4293 3.87262
lfingers 7.12502
lthumb -0.834735 33.8507
rfemur -7.20754 4.91732 25.1643
rtibia 30.307
rfoot -32.7265 -25.8419
rtoes -9.67257
lfemur -48.8587 10.7686 -1.97298
ltibia 49.0485
lfoot -9.03696 11.2137
ltoes 4.99845
